<svg width="20" height="20" viewBox="0 0 20 20" fill="none" xmlns="http://www.w3.org/2000/svg">
<path d="M14.3438 16.1133C13.1211 16.9883 11.6211 17.5 10 17.5C8.37891 17.5 6.87891 16.9883 5.65625 16.1133L7.92188 13.8477C8.53906 14.1836 9.25 14.375 10.0039 14.375C10.7578 14.375 11.4648 14.1836 12.0859 13.8477L14.3516 16.1133H14.3438ZM17.8867 16.1445C19.207 14.4492 19.9961 12.3164 19.9961 10C19.9961 7.68359 19.207 5.55078 17.8867 3.85547C18.2383 3.36719 18.1953 2.67969 17.7539 2.24219C17.3125 1.80469 16.6328 1.75781 16.1445 2.10938C14.4492 0.789062 12.3164 0 10 0C7.68359 0 5.55078 0.789062 3.85547 2.10938C3.36719 1.75781 2.67969 1.80078 2.24219 2.24219C1.80469 2.68359 1.75781 3.36719 2.10938 3.85547C0.789062 5.55078 0 7.68359 0 10C0 12.3164 0.789062 14.4492 2.10938 16.1445C1.75781 16.6328 1.80078 17.3203 2.24219 17.7578C2.68359 18.1953 3.36719 18.2422 3.85547 17.8906C5.55078 19.2109 7.68359 20 10 20C12.3164 20 14.4492 19.2109 16.1445 17.8906C16.6328 18.2422 17.3203 18.1992 17.7578 17.7578C18.1953 17.3164 18.2422 16.6328 17.8906 16.1445H17.8867ZM16.1094 14.3438L13.8438 12.0781C14.1797 11.4609 14.3711 10.75 14.3711 9.99609C14.3711 9.24219 14.1797 8.53516 13.8438 7.91406L16.1094 5.64844C16.9883 6.87891 17.5 8.37891 17.5 10C17.5 11.6211 16.9883 13.1211 16.1133 14.3438H16.1094ZM14.3438 3.88672L12.0781 6.15234C11.4609 5.81641 10.75 5.625 9.99609 5.625C9.24219 5.625 8.53516 5.81641 7.91406 6.15234L5.64844 3.88672C6.87891 3.01172 8.37891 2.5 10 2.5C11.6211 2.5 13.1211 3.01172 14.3438 3.88672ZM6.15234 12.082L3.88672 14.3477C3.01172 13.1211 2.5 11.6211 2.5 10C2.5 8.37891 3.01172 6.87891 3.88672 5.65625L6.15234 7.92188C5.81641 8.53906 5.625 9.25 5.625 10.0039C5.625 10.7578 5.81641 11.4648 6.15234 12.0859V12.082ZM8.125 10C8.125 9.50272 8.32254 9.02581 8.67417 8.67417C9.02581 8.32254 9.50272 8.125 10 8.125C10.4973 8.125 10.9742 8.32254 11.3258 8.67417C11.6775 9.02581 11.875 9.50272 11.875 10C11.875 10.4973 11.6775 10.9742 11.3258 11.3258C10.9742 11.6775 10.4973 11.875 10 11.875C9.50272 11.875 9.02581 11.6775 8.67417 11.3258C8.32254 10.9742 8.125 10.4973 8.125 10Z" fill="white"/>
</svg>
