<svg width="20" height="20" viewBox="0 0 20 20" fill="none" xmlns="http://www.w3.org/2000/svg">
<path d="M2.5 2.5L17.5 17.5" stroke="#8a9393" stroke-width="1.5" stroke-linecap="round"/>
<path d="M8.5 8.5C8.19 8.82 8 9.24 8 9.5C8 10.38 8.62 11.5 10 11.5C10.26 11.5 10.68 11.31 11 11L8.5 8.5Z" fill="#8a9393"/>
<path d="M11.5 11.5C11.81 11.18 12 10.76 12 10.5C12 9.62 11.38 8.5 10 8.5C9.74 8.5 9.32 8.69 9 9L11.5 11.5Z" fill="#8a9393"/>
<path d="M10 4C5.5 4 2.73 7.11 1.5 9.5C2.73 11.89 5.5 15 10 15C11.5 15 12.8 14.6 13.9 14L11.5 11.6C11.2 11.9 10.7 12.1 10.2 12.1C8.8 12.1 7.7 11 7.7 9.6C7.7 9.1 7.9 8.6 8.2 8.3L5.8 5.9C4.7 6.4 3.5 7.1 2.5 8C3.3 7.1 4.2 6.3 5.2 5.7L10 4Z" fill="#8a9393"/>
<path d="M14.2 12.3L12.8 10.9C13.2 10.3 13.5 9.7 13.5 9C13.5 6.8 11.7 5 9.5 5C8.8 5 8.2 5.3 7.6 5.7L6.2 4.3C7.2 3.6 8.5 3.2 10 3.2C14.5 3.2 17.3 6.3 18.5 8.7C17.9 9.8 17.1 10.8 16.2 11.6L14.2 12.3Z" fill="#8a9393"/>
</svg>
