<svg width="18" height="20" viewBox="0 0 18 20" fill="none" xmlns="http://www.w3.org/2000/svg">
<path d="M5 0C5.69141 0 6.25 0.558594 6.25 1.25V2.5H11.25V1.25C11.25 0.558594 11.8086 0 12.5 0C13.1914 0 13.75 0.558594 13.75 1.25V2.5H15.625C16.6602 2.5 17.5 3.33984 17.5 4.375V6.25H0V4.375C0 3.33984 0.839844 2.5 1.875 2.5H3.75V1.25C3.75 0.558594 4.30859 0 5 0ZM0 7.5H17.5V18.125C17.5 19.1602 16.6602 20 15.625 20H1.875C0.839844 20 0 19.1602 0 18.125V7.5ZM11.9141 11.9141C12.2812 11.5469 12.2812 10.9531 11.9141 10.5898C11.5469 10.2266 10.9531 10.2227 10.5898 10.5898L8.75391 12.4258L6.91797 10.5898C6.55078 10.2227 5.95703 10.2227 5.59375 10.5898C5.23047 10.957 5.22656 11.5508 5.59375 11.9141L7.42969 13.75L5.59375 15.5859C5.22656 15.9531 5.22656 16.5469 5.59375 16.9102C5.96094 17.2734 6.55469 17.2773 6.91797 16.9102L8.75391 15.0742L10.5898 16.9102C10.957 17.2773 11.5508 17.2773 11.9141 16.9102C12.2773 16.543 12.2812 15.9492 11.9141 15.5859L10.0781 13.75L11.9141 11.9141Z" fill="#00A3AD"/>
</svg>
