<svg width="20" height="20" viewBox="0 0 20 20" fill="none" xmlns="http://www.w3.org/2000/svg">
<path d="M7.5 4.09375C7.5 3.73438 7.27344 3.41797 6.98438 3.20312C6.53125 2.86328 6.25 2.39453 6.25 1.875C6.25 0.839844 7.37109 0 8.75 0C10.1289 0 11.25 0.839844 11.25 1.875C11.25 2.39453 10.9688 2.86328 10.5156 3.20312C10.2266 3.41797 10 3.73438 10 4.09375C10 4.59375 10.4062 5 10.9062 5H13.125C14.1602 5 15 5.83984 15 6.875V9.09375C15 9.59375 15.4062 10 15.9062 10C16.2656 10 16.582 9.77344 16.7969 9.48438C17.1367 9.03125 17.6055 8.75 18.125 8.75C19.1602 8.75 20 9.87109 20 11.25C20 12.6289 19.1602 13.75 18.125 13.75C17.6055 13.75 17.1367 13.4688 16.7969 13.0156C16.582 12.7266 16.2656 12.5 15.9062 12.5C15.4062 12.5 15 12.9062 15 13.4062V18.125C15 19.1602 14.1602 20 13.125 20H10.9062C10.4062 20 10 19.5938 10 19.0938C10 18.7344 10.2266 18.418 10.5156 18.2031C10.9688 17.8633 11.25 17.3945 11.25 16.875C11.25 15.8398 10.1289 15 8.75 15C7.37109 15 6.25 15.8398 6.25 16.875C6.25 17.3945 6.53125 17.8633 6.98438 18.2031C7.27344 18.418 7.5 18.7344 7.5 19.0938C7.5 19.5938 7.09375 20 6.59375 20H1.875C0.839844 20 0 19.1602 0 18.125V13.4062C0 12.9062 0.40625 12.5 0.90625 12.5C1.26562 12.5 1.58203 12.7266 1.79688 13.0156C2.13672 13.4688 2.60547 13.75 3.125 13.75C4.16016 13.75 5 12.6289 5 11.25C5 9.87109 4.16016 8.75 3.125 8.75C2.60547 8.75 2.13672 9.03125 1.79688 9.48438C1.58203 9.77344 1.26562 10 0.90625 10C0.40625 10 0 9.59375 0 9.09375V6.875C0 5.83984 0.839844 5 1.875 5H6.59375C7.09375 5 7.5 4.59375 7.5 4.09375Z" fill="#00A3AD"/>
</svg>
