<svg width="22" height="20" viewBox="0 0 22 20" fill="none" xmlns="http://www.w3.org/2000/svg">
<path d="M18.7002 5C18.7002 4.44687 18.2086 4 17.6002 4H4.40019C3.79176 4 3.30019 4.44687 3.30019 5C3.30019 5.55313 3.79176 6 4.40019 6H17.6002C18.2086 6 18.7002 5.55313 18.7002 5ZM18.7002 10C18.7002 9.44687 18.2086 9 17.6002 9H4.40019C3.79176 9 3.30019 9.44687 3.30019 10C3.30019 10.5531 3.79176 11 4.40019 11H17.6002C18.2086 11 18.7002 10.5531 18.7002 10ZM3.30019 15C3.30019 15.5531 3.79176 16 4.40019 16H17.6002C18.2086 16 18.7002 15.5531 18.7002 15C18.7002 14.4469 18.2086 14 17.6002 14H4.40019C3.79176 14 3.30019 14.4469 3.30019 15Z" fill="black"/>
</svg>
